# xmcd
#
# Track frame offsets:
#	150
#	7375
#	14416
#	21715
#	35198
#
# Disc length: 648 seconds
#
# Revision: 0
# Processed by: cddbd v1.5.2PL0 Copyright (c) Steve Scherf et al.
# Submitted via: EasyCDDAExtractor 10.0.0.1
#
DISCID=45028605
DTITLE=Мила Родино - Нова Ревизия
DYEAR=2004
DGENRE=
TTITLE0=церемониална версия /инструментална/
TTITLE1=церемониална версия /хор и оркестър/
TTITLE2=церемониална версия /хор, оркестър и солисти/
TTITLE3=пълна версия /инструментална/
TTITLE4=пълна версия /хор, оркестър и солисти/
EXTD=
EXTT0=
EXTT1=
EXTT2=
EXTT3=
EXTT4=
PLAYORDER=
